<?xml version="1.0" standalone="no"?>
<!DOCTYPE svg PUBLIC "-//W3C//DTD SVG 1.1//EN" "http://www.w3.org/Graphics/SVG/1.1/DTD/svg11.dtd" >
<svg xmlns="http://www.w3.org/2000/svg">
  <metadata>Created by iconfont</metadata>
  <defs>
  <font id="anticon" horiz-adv-x="1024">
    <font-face
      font-family="anticon"
      font-weight="400"
      font-stretch="normal"
      units-per-em="1024"
      ascent="896"
      descent="-128"
    />
      <missing-glyph />
      
      <glyph glyph-name="tag_level-2" unicode="&#59013;" d="M0 896h1433.6c56.32 0 102.4-46.08 102.4-102.4v-921.6L0 896zM762.88 645.12l250.88-143.36-25.6-40.96-250.88 143.36 25.6 40.96zM872.96 793.6l212.48-122.88-23.04-38.4-212.48 122.88 23.04 38.4zM1013.76 476.16c30.72-12.8 61.44-25.6 89.6-35.84-5.12-7.68-10.24-12.8-12.8-20.48 35.84 23.04 69.12 58.88 102.4 107.52 5.12 7.68 12.8 23.04 25.6 40.96l-17.92 10.24 17.92 30.72 138.24-79.36-17.92-30.72-43.52-30.72 35.84-20.48-17.92-30.72c-23.04-25.6-48.64-46.08-79.36-58.88 7.68-20.48 15.36-38.4 28.16-53.76-17.92-7.68-30.72-12.8-40.96-20.48-10.24 17.92-17.92 38.4-23.04 61.44-23.04-5.12-48.64-7.68-76.8-7.68 0 15.36-2.56 30.72-2.56 43.52 25.6-2.56 51.2 0 74.24 5.12-2.56 25.6 0 51.2 5.12 79.36-35.84-51.2-76.8-84.48-120.32-99.84 0 15.36-2.56 28.16-5.12 40.96l-71.68 25.6 12.8 43.52z m110.08 104.96c7.68-2.56 12.8-7.68 23.04-12.8 10.24 7.68 23.04 12.8 38.4 23.04l20.48-33.28c-43.52-23.04-76.8-40.96-102.4-51.2 15.36-7.68 30.72-12.8 43.52-17.92-7.68-7.68-12.8-17.92-20.48-30.72-35.84 15.36-61.44 25.6-81.92 33.28l7.68 33.28c15.36 2.56 35.84 10.24 61.44 23.04-12.8 5.12-23.04 10.24-33.28 15.36l7.68 35.84c23.04 10.24 53.76 28.16 92.16 58.88l25.6-30.72c-35.84-20.48-64-35.84-81.92-46.08z m117.76-48.64c-12.8-51.2-17.92-94.72-12.8-128 17.92 10.24 35.84 20.48 51.2 38.4l-38.4 23.04 17.92 30.72 40.96 28.16-46.08 28.16c-5.12-7.68-10.24-12.8-12.8-20.48z"  horiz-adv-x="1536" />
      
      <glyph glyph-name="tag_level-3" unicode="&#59014;" d="M0 896h1433.6c56.32 0 102.4-46.08 102.4-102.4v-921.6L0 896zM752.64 622.08l250.88-145.92-23.04-38.4-250.88 145.92 23.04 38.4z m81.92 76.8l194.56-112.64-20.48-38.4-194.56 112.64 20.48 38.4zM872.96 793.6l217.6-125.44-23.04-38.4-217.6 125.44 23.04 38.4zM1013.76 468.48c30.72-12.8 61.44-25.6 89.6-35.84-5.12-7.68-10.24-12.8-12.8-20.48 35.84 23.04 69.12 58.88 102.4 107.52 5.12 7.68 12.8 23.04 25.6 40.96l-17.92 10.24 17.92 30.72 138.24-79.36-17.92-30.72-43.52-30.72 35.84-20.48-17.92-30.72c-23.04-25.6-48.64-46.08-79.36-58.88 7.68-20.48 15.36-38.4 28.16-53.76-17.92-7.68-30.72-12.8-40.96-20.48-10.24 17.92-17.92 38.4-23.04 61.44-23.04-5.12-48.64-7.68-76.8-7.68 0 15.36-2.56 30.72-2.56 43.52 25.6-2.56 51.2 0 74.24 5.12-2.56 25.6 0 51.2 5.12 79.36-35.84-51.2-76.8-84.48-120.32-99.84 0 15.36-2.56 28.16-5.12 40.96l-71.68 25.6 12.8 43.52z m110.08 102.4c7.68-2.56 12.8-7.68 23.04-12.8 10.24 7.68 23.04 12.8 38.4 23.04l20.48-33.28c-43.52-23.04-76.8-40.96-102.4-51.2 15.36-7.68 30.72-12.8 43.52-17.92-7.68-7.68-12.8-17.92-20.48-30.72-35.84 15.36-61.44 25.6-81.92 33.28l7.68 33.28c15.36 2.56 35.84 10.24 61.44 23.04-12.8 5.12-23.04 10.24-33.28 15.36l7.68 35.84c23.04 10.24 53.76 28.16 92.16 58.88l25.6-30.72c-35.84-20.48-64-33.28-81.92-46.08z m117.76-46.08c-12.8-51.2-17.92-94.72-12.8-128 17.92 10.24 35.84 20.48 51.2 38.4l-38.4 23.04 17.92 30.72 40.96 28.16-46.08 28.16c-5.12-7.68-10.24-15.36-12.8-20.48z"  horiz-adv-x="1536" />
      
      <glyph glyph-name="tag_level-4" unicode="&#59015;" d="M0 896h1433.6c56.32 0 102.4-46.08 102.4-102.4v-921.6L0 896zM732.16 581.12L870.4 819.2l232.96-135.68-138.24-238.08-38.4 20.48 10.24 15.36-158.72 92.16-10.24-15.36-35.84 23.04z m263.68 5.12c-10.24-10.24-17.92-20.48-25.6-30.72l-30.72 17.92c-20.48 12.8-25.6 28.16-12.8 48.64l51.2 87.04-25.6 15.36-30.72-51.2c-20.48-33.28-46.08-53.76-81.92-56.32-2.56 10.24-7.68 20.48-15.36 35.84l-25.6-43.52 158.72-92.16 87.04 151.04-33.28 23.04-40.96-71.68c-5.12-7.68-2.56-15.36 5.12-20.48l20.48-12.8z m-107.52 110.08l28.16 48.64-30.72 17.92-61.44-107.52c28.16 0 48.64 12.8 64 40.96zM1013.76 483.84c30.72-12.8 61.44-25.6 89.6-35.84-5.12-7.68-10.24-12.8-12.8-20.48 35.84 23.04 69.12 58.88 102.4 107.52 5.12 7.68 12.8 23.04 25.6 40.96l-20.48 12.8 17.92 30.72 138.24-79.36-17.92-30.72-43.52-30.72 35.84-20.48-17.92-30.72c-23.04-25.6-48.64-46.08-79.36-58.88 7.68-20.48 15.36-38.4 28.16-53.76-17.92-7.68-30.72-12.8-40.96-20.48-10.24 17.92-17.92 38.4-23.04 61.44-23.04-5.12-48.64-7.68-76.8-7.68 0 15.36-2.56 30.72-2.56 43.52 25.6-2.56 51.2 0 74.24 5.12-2.56 25.6 0 51.2 5.12 79.36-35.84-51.2-76.8-84.48-120.32-99.84 0 15.36-2.56 28.16-5.12 40.96l-71.68 25.6 15.36 40.96z m110.08 102.4c7.68-2.56 12.8-7.68 23.04-12.8 10.24 7.68 23.04 12.8 38.4 23.04L1203.2 563.2c-43.52-23.04-76.8-40.96-102.4-51.2 15.36-7.68 30.72-12.8 43.52-17.92-7.68-7.68-12.8-17.92-20.48-30.72-35.84 15.36-61.44 25.6-81.92 33.28l7.68 33.28c15.36 2.56 35.84 10.24 61.44 23.04-12.8 5.12-23.04 10.24-33.28 15.36l7.68 35.84c23.04 10.24 53.76 28.16 92.16 58.88l25.6-30.72c-33.28-20.48-61.44-35.84-79.36-46.08z m117.76-46.08c-12.8-51.2-17.92-94.72-12.8-128 17.92 10.24 35.84 20.48 51.2 38.4l-38.4 23.04 17.92 30.72 40.96 28.16-46.08 28.16c-5.12-10.24-10.24-15.36-12.8-20.48z"  horiz-adv-x="1536" />
      
      <glyph glyph-name="tag_level-1" unicode="&#59012;" d="M0 896h1433.6c56.32 0 102.4-46.08 102.4-102.4v-921.6L0 896zM808.96 716.8l250.88-145.92-23.04-38.4-250.88 145.92 23.04 38.4zM1013.76 468.48c30.72-12.8 61.44-25.6 89.6-35.84-5.12-7.68-10.24-12.8-12.8-20.48 35.84 23.04 69.12 58.88 102.4 107.52 5.12 7.68 12.8 23.04 25.6 40.96l-17.92 10.24 17.92 30.72 138.24-79.36-17.92-30.72-43.52-30.72 35.84-20.48-17.92-30.72c-23.04-25.6-48.64-46.08-79.36-58.88 7.68-20.48 15.36-38.4 28.16-53.76-17.92-7.68-30.72-12.8-40.96-20.48-10.24 17.92-17.92 38.4-23.04 61.44-23.04-5.12-48.64-7.68-76.8-7.68 0 15.36-2.56 30.72-2.56 43.52 25.6-2.56 51.2 0 74.24 5.12-2.56 25.6 0 51.2 5.12 79.36-35.84-51.2-76.8-84.48-120.32-99.84 0 15.36-2.56 28.16-5.12 40.96l-71.68 25.6 12.8 43.52z m110.08 104.96c7.68-2.56 12.8-7.68 23.04-12.8 10.24 7.68 23.04 12.8 38.4 23.04l20.48-33.28c-43.52-23.04-76.8-40.96-102.4-51.2 15.36-7.68 30.72-12.8 43.52-17.92-7.68-7.68-12.8-17.92-20.48-30.72-35.84 15.36-61.44 25.6-81.92 33.28l7.68 33.28c15.36 2.56 35.84 10.24 61.44 23.04-12.8 5.12-23.04 10.24-33.28 15.36l7.68 35.84c23.04 10.24 53.76 28.16 92.16 58.88l25.6-30.72c-35.84-20.48-64-35.84-81.92-46.08z m117.76-48.64c-12.8-51.2-17.92-94.72-12.8-128 17.92 10.24 35.84 20.48 51.2 38.4l-38.4 23.04 17.92 30.72 40.96 28.16-46.08 28.16c-5.12-7.68-10.24-12.8-12.8-20.48z"  horiz-adv-x="1536" />
      
      <glyph glyph-name="icon_daoruhuanzhe" unicode="&#59001;" d="M849.92 245.76c-79.36-79.36-279.04-76.8-355.84 0 0 74.24 46.08 138.24 112.64 166.4-20.48 17.92-33.28 43.52-33.28 71.68 0 53.76 43.52 99.84 99.84 99.84 53.76 0 99.84-43.52 99.84-99.84 0-28.16-12.8-53.76-33.28-71.68 64-28.16 110.08-92.16 110.08-166.4z m-40.96-179.2H215.04c-66.56 0-117.76 53.76-117.76 117.76V384h38.4v-197.12c0-43.52 35.84-79.36 79.36-79.36h593.92c43.52 0 79.36 35.84 79.36 79.36V581.12c0 43.52-35.84 79.36-79.36 79.36H412.16V701.44h396.8c66.56 0 117.76-53.76 117.76-117.76v-396.8c2.56-66.56-51.2-120.32-117.76-120.32zM235.52 266.24h117.76c10.24 0 20.48-7.68 20.48-20.48 0-10.24-7.68-20.48-20.48-20.48H235.52c-10.24 0-20.48 7.68-20.48 20.48 0 10.24 7.68 20.48 20.48 20.48z m0 117.76h197.12c10.24 0 20.48-7.68 20.48-20.48 0-10.24-7.68-20.48-20.48-20.48H235.52c-10.24 0-20.48 7.68-20.48 20.48s7.68 20.48 20.48 20.48z m-61.44 158.72l-79.36 79.36 79.36 79.36 79.36-79.36L332.8 701.44v-238.08H94.72l79.36 79.36z"  horiz-adv-x="1024" />
      
      <glyph glyph-name="icon_zhuyi" unicode="&#59002;" d="M512 69.12c-174.08 0-314.88 140.8-314.88 314.88 0 174.08 140.8 314.88 314.88 314.88 174.08 0 314.88-140.8 314.88-314.88 0-174.08-140.8-314.88-314.88-314.88z m0 560.64c-38.4 0-69.12-30.72-69.12-69.12 0-7.68 2.56-15.36 2.56-20.48l30.72-222.72h69.12l30.72 222.72c2.56 7.68 2.56 12.8 2.56 20.48 2.56 35.84-28.16 69.12-66.56 69.12zM512 281.6c-40.96 0-71.68-33.28-71.68-71.68 0-40.96 33.28-71.68 71.68-71.68 40.96 0 71.68 33.28 71.68 71.68 0 38.4-30.72 71.68-71.68 71.68z"  horiz-adv-x="1024" />
      
      <glyph glyph-name="icon_rili" unicode="&#59003;" d="M806.4 25.6h-588.8C181.76 25.6 153.6 53.76 153.6 89.6V611.84c0 35.84 28.16 64 64 64h97.28V742.4h97.28v-64H609.28V742.4h97.28v-64h97.28c35.84 0 64-28.16 64-64v-522.24c2.56-38.4-25.6-66.56-61.44-66.56z m0 552.96c0 15.36-15.36 33.28-33.28 33.28h-64v-33.28h-97.28v33.28H414.72v-33.28h-97.28v33.28H250.88c-15.36 0-33.28-17.92-33.28-33.28v-455.68c0-17.92 15.36-33.28 33.28-33.28h522.24c17.92 0 33.28 15.36 33.28 33.28V578.56z m-163.84-358.4h64v-64h-64v64z m0 130.56h64v-64h-64v64z m0 130.56h64v-64h-64v64z m-163.84-261.12h64v-64h-64v64z m0 130.56h64v-64h-64v64z m0 130.56h64v-64h-64v64z m-161.28-261.12h64v-64h-64v64z m0 130.56h64v-64h-64v64z m0 130.56h64v-64h-64v64z"  horiz-adv-x="1024" />
      
      <glyph glyph-name="icon_dayin" unicode="&#59004;" d="M791.04 263.68v-199.68c0-23.04-17.92-40.96-40.96-40.96H273.92c-23.04 0-40.96 17.92-40.96 40.96v199.68H112.64v238.08c0 66.56 53.76 120.32 120.32 120.32V701.44c0 23.04 17.92 40.96 40.96 40.96h478.72c23.04 0 40.96-17.92 40.96-40.96v-79.36c66.56 0 120.32-53.76 120.32-120.32v-238.08h-122.88z m-517.12 0v-199.68h478.72V343.04H273.92v-79.36zM750.08 701.44H273.92v-79.36h478.72V701.44z m120.32-197.12c0 43.52-35.84 79.36-79.36 79.36H232.96c-43.52 0-79.36-35.84-79.36-79.36v-199.68h79.36V384h558.08v-79.36H870.4v199.68z m-517.12-40.96h-79.36c-23.04 0-40.96 17.92-40.96 40.96s17.92 40.96 40.96 40.96h79.36c23.04 0 40.96-17.92 40.96-40.96s-20.48-40.96-40.96-40.96z m279.04-358.4h-238.08c-23.04 0-40.96 17.92-40.96 40.96 0 23.04 17.92 40.96 40.96 40.96h238.08c23.04 0 40.96-17.92 40.96-40.96-2.56-23.04-20.48-40.96-40.96-40.96z m0 120.32h-238.08c-23.04 0-40.96 17.92-40.96 40.96 0 23.04 17.92 40.96 40.96 40.96h238.08c23.04 0 40.96-17.92 40.96-40.96-2.56-23.04-20.48-40.96-40.96-40.96z"  horiz-adv-x="1024" />
      
      <glyph glyph-name="icon_daochuexcel" unicode="&#59005;" d="M727.04 655.36c0 43.52-35.84 76.8-76.8 76.8H296.96c-43.52 0-76.8-35.84-76.8-76.8v-465.92c0-43.52 35.84-76.8 76.8-76.8h232.96v-38.4h-232.96c-64 0-117.76 51.2-117.76 117.76V655.36c0 64 51.2 117.76 117.76 117.76h350.72c64 0 117.76-51.2 117.76-117.76v-312.32L727.04 384V655.36zM453.12 266.24c20.48 0 38.4-17.92 38.4-38.4s-17.92-38.4-38.4-38.4h-117.76c-20.48 0-38.4 17.92-38.4 38.4s17.92 38.4 38.4 38.4h117.76z m79.36 79.36l-58.88 76.8-58.88-76.8h-117.76l117.76 156.16-117.76 156.16h117.76l58.88-76.8 58.88 76.8h117.76l-117.76-156.16 117.76-156.16h-117.76z m153.6-38.4l156.16-156.16-156.16-156.16v76.8h-117.76v156.16h117.76V307.2z"  horiz-adv-x="1024" />
      
      <glyph glyph-name="icon_zhongzhi" unicode="&#59006;" d="M512 115.2c-148.48 0-268.8 120.32-268.8 268.8 0 5.12 2.56 10.24 2.56 17.92h74.24c0-7.68-2.56-12.8-2.56-20.48 0-110.08 89.6-199.68 199.68-199.68s199.68 89.6 199.68 199.68-89.6 199.68-199.68 199.68c-40.96 0-79.36-12.8-112.64-35.84h17.92c20.48 0 35.84-15.36 35.84-35.84 0-20.48-15.36-35.84-35.84-35.84h-107.52c-10.24 0-17.92 5.12-25.6 10.24-7.68 7.68-10.24 15.36-10.24 25.6v107.52c0 20.48 15.36 35.84 35.84 35.84 20.48 0 35.84-15.36 35.84-35.84v-17.92c46.08 33.28 99.84 53.76 161.28 53.76 148.48 0 268.8-120.32 268.8-268.8S660.48 115.2 512 115.2z"  horiz-adv-x="1024" />
      
      <glyph glyph-name="icon_shanchu" unicode="&#59007;" d="M860.16 547.84H819.2v-407.04c0-66.56-53.76-122.88-122.88-122.88H327.68c-66.56 0-122.88 53.76-122.88 122.88V547.84H163.84c-23.04 0-40.96 17.92-40.96 40.96s17.92 40.96 40.96 40.96h204.8V670.72c0 46.08 35.84 81.92 81.92 81.92h122.88c46.08 0 81.92-35.84 81.92-81.92v-40.96h204.8c23.04 0 40.96-17.92 40.96-40.96s-20.48-40.96-40.96-40.96zM614.4 670.72c0 23.04-17.92 40.96-40.96 40.96h-122.88c-23.04 0-40.96-20.48-40.96-40.96v-40.96h204.8V670.72z m163.84-122.88H245.76v-407.04c0-46.08 35.84-81.92 81.92-81.92h368.64c46.08 0 81.92 35.84 81.92 81.92V547.84zM655.36 179.2c-23.04 0-40.96 17.92-40.96 40.96v204.8c0 23.04 17.92 40.96 40.96 40.96 23.04 0 40.96-17.92 40.96-40.96v-204.8c0-23.04-17.92-40.96-40.96-40.96zM512 179.2c-10.24 0-20.48 10.24-20.48 20.48v245.76c0 10.24 10.24 20.48 20.48 20.48s20.48-10.24 20.48-20.48v-245.76c0-10.24-10.24-20.48-20.48-20.48z m-143.36 0c-23.04 0-40.96 17.92-40.96 40.96v204.8c0 23.04 17.92 40.96 40.96 40.96 23.04 0 40.96-17.92 40.96-40.96v-204.8c0-23.04-17.92-40.96-40.96-40.96z"  horiz-adv-x="1024" />
      
      <glyph glyph-name="icon_qingkong" unicode="&#59008;" d="M171.52-5.12V384h632.32l48.64-389.12H171.52z m583.68 340.48H220.16v-291.84h97.28v194.56h48.64v-194.56h97.28v194.56H512v-194.56h97.28v194.56h48.64l48.64-194.56h97.28l-48.64 291.84z m-340.48 97.28H171.52v48.64c0 25.6 23.04 48.64 48.64 48.64h194.56V701.44c0 40.96 33.28 74.24 74.24 74.24C529.92 775.68 563.2 742.4 563.2 701.44v-171.52h194.56c25.6 0 48.64-23.04 48.64-48.64v-48.64H414.72z"  horiz-adv-x="1024" />
      
      <glyph glyph-name="icon_shijian" unicode="&#59009;" d="M512 10.24c-207.36 0-373.76 166.4-373.76 373.76S304.64 757.76 512 757.76 885.76 591.36 885.76 384 719.36 10.24 512 10.24z m0 678.4C343.04 688.64 207.36 552.96 207.36 384S343.04 79.36 512 79.36 816.64 215.04 816.64 384 680.96 688.64 512 688.64z m135.68-337.92H512c-17.92 0-33.28 15.36-33.28 33.28v238.08c0 17.92 15.36 33.28 33.28 33.28 17.92 0 33.28-15.36 33.28-33.28v-204.8h102.4c17.92 0 33.28-15.36 33.28-33.28s-12.8-33.28-33.28-33.28z"  horiz-adv-x="1024" />
      
      <glyph glyph-name="icon_jiechuguanlian" unicode="&#59010;" d="M675.84 92.16h-110.08v74.24h110.08c81.92 0 145.92 66.56 145.92 145.92s-66.56 145.92-145.92 145.92h-110.08v74.24h110.08c120.32 0 220.16-97.28 220.16-220.16s-97.28-220.16-220.16-220.16zM512 17.92c-10.24 0-17.92 7.68-17.92 17.92V348.16h35.84v-312.32c0-10.24-7.68-17.92-17.92-17.92z m-17.92 714.24c0 10.24 7.68 17.92 17.92 17.92s17.92-7.68 17.92-17.92v-312.32h-35.84V732.16zM128 458.24c0 120.32 97.28 220.16 220.16 220.16h110.08v-74.24h-110.08c-81.92 0-145.92-66.56-145.92-145.92s66.56-145.92 145.92-145.92h110.08v-74.24h-110.08c-122.88 0-220.16 97.28-220.16 220.16z"  horiz-adv-x="1024" />
      
      <glyph glyph-name="icon_tishi" unicode="&#59011;" d="M512 71.68c-171.52 0-312.32 140.8-312.32 312.32S340.48 696.32 512 696.32 824.32 555.52 824.32 384 683.52 71.68 512 71.68z m15.36 529.92c-25.6 0-46.08-20.48-46.08-46.08s20.48-46.08 46.08-46.08 46.08 20.48 46.08 46.08-20.48 46.08-46.08 46.08z m46.08-156.16c0 17.92-12.8 30.72-30.72 30.72h-61.44l-94.72-61.44h94.72l-61.44-217.6c0-17.92 12.8-30.72 30.72-30.72H512l94.72 61.44H512l61.44 217.6z"  horiz-adv-x="1024" />
      
      <glyph glyph-name="icon_jiankangka" unicode="&#58998;" d="M833.75923265 40.79015184000002h-643.5184653c-72.93209274 0-128.70369303 55.77160034-128.70369305 128.70369309V598.50615507c0 72.93209274 55.77160034 128.70369303 128.70369305 128.70369309h643.5184653c72.93209274 0 128.70369303-55.77160034 128.70369305-128.70369309v-429.01231014c0-72.93209274-55.77160034-128.70369303-128.70369305-128.70369309z m85.80246202 557.71600323c0 47.19135413-38.61110791 85.80246203-85.80246202 85.80246205h-643.5184653c-47.19135413 0-85.80246203-38.61110791-85.80246202-85.80246205v-429.01231014c0-47.19135413 38.61110791-85.80246203 85.80246202-85.80246205h643.5184653c47.19135413 0 85.80246203 38.61110791 85.80246202 85.80246205V598.50615507z m-429.01231017-364.66046365c0 81.51233893 51.48147723 150.15430858 120.12344684 180.18517029-21.4506155 21.4506155-34.32098481 47.19135413-34.3209848 77.22221584 0 60.06172342 47.19135413 107.25307755 107.25307755 107.25307752s107.25307755-47.19135413 107.25307752-107.25307752c0-30.03086171-12.87036929-60.06172342-34.3209848-77.22221584 68.64196964-30.03086171 120.12344685-98.67283134 120.12344684-180.18517029-85.80246203-85.80246203-300.30861712-85.80246203-386.11107915 0z m-98.67283135 98.67283135c-34.32098481-25.7407386-68.64196964-64.35184654-72.93209273-77.2222158-4.29012309 17.16049241-34.32098481 51.48147723-72.93209273 77.2222158-38.61110791 25.7407386-102.96295444 51.48147723-98.67283134 120.12344687 0 120.12344685 128.70369303 145.86418548 171.60492407 42.901231 42.90123101 98.67283134 171.60492409 81.51233893 171.60492408-38.6111079 0-72.93209274-60.06172342-98.67283134-98.67283135-124.41356997z"  horiz-adv-x="1024" />
      
      <glyph glyph-name="icon_shenfenzheng" unicode="&#58999;" d="M833.75923265 40.79015184000002h-643.5184653c-72.93209274 0-128.70369303 55.77160034-128.70369305 128.70369309V598.50615507c0 72.93209274 55.77160034 128.70369303 128.70369305 128.70369309h643.5184653c72.93209274 0 128.70369303-55.77160034 128.70369305-128.70369309v-429.01231014c0-72.93209274-55.77160034-128.70369303-128.70369305-128.70369309z m85.80246202 557.71600323c0 47.19135413-38.61110791 85.80246203-85.80246202 85.80246205h-643.5184653c-47.19135413 0-85.80246203-38.61110791-85.80246202-85.80246205v-429.01231014c0-47.19135413 38.61110791-85.80246203 85.80246202-85.80246205h643.5184653c47.19135413 0 85.80246203 38.61110791 85.80246202 85.80246205V598.50615507z m-128.70369306-386.11107916h-128.70369303c-25.7407386 0-42.90123101 17.16049241-42.90123103 42.90123106s17.16049241 42.90123101 42.90123103 42.901231h128.70369303c25.7407386 0 42.90123101-17.16049241 42.90123104-42.901231s-17.16049241-42.90123101-42.90123104-42.90123106z m-85.80246203 128.70369308h-42.901231c-25.7407386 0-42.90123101 17.16049241-42.90123103 42.90123101s17.16049241 42.90123101 42.90123103 42.90123101h42.901231c25.7407386 0 42.90123101-17.16049241 42.90123102-42.90123101s-17.16049241-42.90123101-42.90123102-42.90123101z m0 128.70369304h-42.901231c-25.7407386 0-42.90123101 17.16049241-42.90123103 42.901231s17.16049241 42.90123101 42.90123103 42.90123106h42.901231c25.7407386 0 42.90123101-17.16049241 42.90123102-42.90123106s-17.16049241-42.90123101-42.90123102-42.901231z m-514.81477223-235.95677061c0 81.51233893 51.48147723 150.15430858 120.12344688 180.18517029-21.4506155 21.4506155-34.32098481 47.19135413-34.32098483 77.22221584 0 60.06172342 47.19135413 107.25307755 107.25307757 107.25307752s107.25307755-47.19135413 107.25307753-107.25307752c0-30.03086171-12.87036929-60.06172342-34.32098484-77.22221584 68.64196964-30.03086171 120.12344685-98.67283134 120.12344688-180.18517029-85.80246203-85.80246203-300.30861712-85.80246203-386.11107919 0z"  horiz-adv-x="1024" />
      
      <glyph glyph-name="icon_jiuzhenka" unicode="&#59000;" d="M833.75923265 40.79015184000002h-643.5184653c-72.93209274 0-128.70369303 55.77160034-128.70369305 128.70369309V598.50615507c0 72.93209274 55.77160034 128.70369303 128.70369305 128.70369309h643.5184653c72.93209274 0 128.70369303-55.77160034 128.70369305-128.70369309v-429.01231014c0-72.93209274-55.77160034-128.70369303-128.70369305-128.70369309z m85.80246202 557.71600323c0 47.19135413-38.61110791 85.80246203-85.80246202 85.80246205h-643.5184653c-47.19135413 0-85.80246203-38.61110791-85.80246202-85.80246205v-429.01231014c0-47.19135413 38.61110791-85.80246203 85.80246202-85.80246205h643.5184653c47.19135413 0 85.80246203 38.61110791 85.80246202 85.80246205V598.50615507z m-429.01231017-364.66046365c0 81.51233893 51.48147723 150.15430858 120.12344684 180.18517029-21.4506155 21.4506155-34.32098481 47.19135413-34.3209848 77.22221584 0 60.06172342 47.19135413 107.25307755 107.25307755 107.25307752s107.25307755-47.19135413 107.25307752-107.25307752c0-30.03086171-12.87036929-60.06172342-34.3209848-77.22221584 68.64196964-30.03086171 120.12344685-98.67283134 120.12344684-180.18517029-85.80246203-85.80246203-300.30861712-85.80246203-386.11107915 0z m-128.70369308-21.45061551h-128.70369303v85.80246206h-85.80246204v128.70369304h85.80246204v85.80246202h128.70369303v-85.80246202h85.80246204v-128.70369304h-85.80246204v-85.80246206z"  horiz-adv-x="1024" />
      
      <glyph glyph-name="icon_buluxinxi" unicode="&#58995;" d="M832.32919159 17.909495300000003H191.67080841c-77.79423226 0-137.28393923 59.48970703-137.28393928 137.28393929V612.8065654100001c0 77.79423226 59.48970703 137.28393923 137.28393928 137.28393929h640.65838318c77.79423226 0 137.28393923-59.48970703 137.28393928-137.28393929v-457.61313082c0-77.79423226-59.48970703-137.28393923-137.28393928-137.28393929z m45.76131311 549.13575706c0 50.33744441-41.18518177 91.52262617-91.52262618 91.52262616H237.43212148c-50.33744441 0-91.52262617-41.18518177-91.52262618-91.52262616v-366.09050472c0-50.33744441 41.18518177-91.52262617 91.52262618-91.52262616h549.13575704c50.33744441 0 91.52262617 41.18518177 91.52262618 91.52262616v366.09050472z m-288.29627244-398.12342385L512 155.19343459000004l13.72839391 77.79423222 192.19751498 192.19751496c9.15226261 9.15226261 22.88065653 9.15226261 32.03291916 0l32.03291915-32.03291916c9.15226261-9.15226261 9.15226261-22.88065653 0-32.03291914l-192.19751494-192.19751496z m118.97941401 306.60079766h-439.30860562c-18.30452524 0-32.03291916 27.45678784-32.03291917 45.76131306s13.72839391 45.76131308 32.03291917 45.76131313h439.30860562c18.30452524 0 32.03291916-27.45678784 32.03291914-45.76131313s-13.72839391-45.76131308-32.03291914-45.76131306z m-439.30860562-45.76131309h118.97941403c18.30452524 0 32.03291916-27.45678784 32.03291915-45.76131308s-13.72839391-45.76131308-32.03291915-45.76131308h-118.97941403c-18.30452524 0-32.03291916 27.45678784-32.03291917 45.76131308s13.72839391 45.76131308 32.03291917 45.76131308z m0-137.28393925h118.97941403c18.30452524 0 32.03291916-27.45678784 32.03291915-45.76131306s-13.72839391-45.76131308-32.03291915-45.76131313h-118.97941403c-18.30452524 0-32.03291916 27.45678784-32.03291917 45.76131313s13.72839391 45.76131308 32.03291917 45.76131306z"  horiz-adv-x="1024" />
      
      <glyph glyph-name="icon_saomiaocaiji" unicode="&#58996;" d="M731.65430282-6.496538350000037h-444.18981236c-92.74292785 0-170.84223554 78.09930768-170.84223553 170.84223553V237.56379815000003h97.62413458v-48.81206733c0-53.69327404 43.93086055-97.62413458 97.6241346-97.62413457h390.49653832c53.69327404 0 97.62413458 43.93086055 97.62413458 97.62413457v48.81206733h97.62413461v-73.21810097c4.88120672-92.74292785-68.3368942-170.84223554-165.9610288-170.84223553z m185.4858557 439.30860564c19.52482692 0 34.1684471-29.28724036 34.1684471-48.81206729s-14.64362017-48.81206729-34.1684471-48.81206729H106.85984148c-19.52482692 0-34.1684471 29.28724036-34.1684471 48.81206729s14.64362017 48.81206729 34.1684471 48.81206729h810.28031704zM804.87240375 579.2482691800001c0 53.69327404-43.93086055 97.62413458-97.62413457 97.62413457h-390.49653836c-53.69327404 0-97.62413458-43.93086055-97.62413457-97.62413457v-48.81206733h-97.6241346v73.21810097c0 97.62413458 73.21810095 170.84223554 170.84223553 170.84223553h444.18981236c92.74292785 0 170.84223554-78.09930768 170.84223553-170.84223553V530.43620185h-97.62413458v48.81206733H804.87240375z"  horiz-adv-x="1024" />
      
      <glyph glyph-name="icon_yuanqianjijiu" unicode="&#58997;" d="M804.87240375-55.30860561999998H219.12759625c-82.98051441 0-146.43620185 63.4556875-146.43620187 146.43620187v390.49653833c0 82.98051441 63.4556875 146.43620185 146.43620187 146.43620186h48.81206731v146.43620191c0 29.28724036 19.52482692 48.81206729 48.81206726 48.81206727h390.49653836c29.28724036 0 48.81206729-19.52482692 48.81206726-48.81206727v-146.43620191h48.81206731c82.98051441 0 146.43620185-63.4556875 146.43620187-146.43620186v-390.49653833c0-82.98051441-63.4556875-146.43620185-146.43620187-146.43620187z m-146.4362019 780.99307665h-292.8724037v-97.62413459h292.8724037v97.62413459z m195.24826918-244.06033645c0 29.28724036-19.52482692 48.81206729-48.81206728 48.81206727H219.12759625c-29.28724036 0-48.81206729-19.52482692-48.81206728-48.81206727v-390.49653833c0-29.28724036 19.52482692-48.81206729 48.81206728-48.81206728h585.7448075c29.28724036 0 48.81206729 19.52482692 48.81206728 48.81206728v390.49653833z m-292.87240374-341.68447102h-97.62413458v97.62413459h-97.62413456v97.62413456h97.62413456v97.62413458h97.62413458v-97.62413458h97.62413456v-97.62413456h-97.62413456v-97.62413459z"  horiz-adv-x="1024" />
      
      <glyph glyph-name="icon_sousuo" unicode="&#58993;" d="M825.79607703 70.20392297000001c-18.64135111-18.64135111-46.60337778-18.64135111-65.24472888 0l-102.52743112 102.52743111c-49.71026963-34.17581037-108.74121482-55.92405333-173.9859437-55.92405333-164.66526815 0-295.15472592 133.59634963-295.15472592 295.15472592s133.59634963 295.15472592 295.15472592 295.15472592 295.15472592-133.59634963 295.15472592-295.15472592c0-65.24472889-21.74824297-124.27567408-55.92405333-173.9859437l102.52743111-102.52743112c15.53445925-15.53445925 15.53445925-46.60337778 0-65.24472888z m-341.7581037 546.81296592c-111.84810667 0-201.94797037-90.0998637-201.94797036-201.94797037s90.0998637-201.94797037 201.94797036-201.94797037 201.94797037 90.0998637 201.94797037 201.94797037-90.0998637 201.94797037-201.94797037 201.94797037z"  horiz-adv-x="1024" />
      
      <glyph glyph-name="icon_huoqu" unicode="&#58994;" d="M813.57563575 337.60374835000005l-255.1793841-122.6186651c-36.45419773-19.88410785-59.65232355-16.57008987-92.7925033 0l-255.1793841 122.6186651c-29.82616178 13.2560719-29.82616178 79.53643141 0 92.7925033h3.31401797c-6.62803595-23.19812583 0-49.71026963 19.88410786-59.65232355l235.29527623-109.36259319c29.82616178-16.57008987 53.02428761-16.57008987 86.16446738 0l235.29527623 109.36259319c16.57008987 9.94205392 23.19812583 36.45419773 19.88410786 59.65232355l3.31401797-3.31401796c29.82616178-9.94205392 29.82616178-76.22241343 0-89.47848534z m0 132.56071901l-255.1793841-122.61866509c-36.45419773-19.88410785-59.65232355-16.57008987-92.7925033 0l-255.1793841 122.61866509c-29.82616178 13.2560719-29.82616178 79.53643141 0 92.79250331l255.1793841 122.61866508c33.14017975 19.88410785 66.2803595 19.88410785 92.7925033 0l255.1793841-122.61866508c29.82616178-13.2560719 29.82616178-79.53643141 0-92.79250331zM611.42053925 549.70089876h-66.2803595v66.28035951c0 19.88410785-13.2560719 33.14017975-33.14017975 33.14017976s-33.14017975-13.2560719-33.14017975-33.14017976v-66.28035951h-66.2803595c-19.88410785 0-33.14017975-13.2560719-33.14017977-33.14017974s13.2560719-33.14017975 33.14017977-33.14017977h66.2803595v-66.2803595c0-19.88410785 13.2560719-33.14017975 33.14017975-33.14017975s33.14017975 13.2560719 33.14017975 33.14017975v66.2803595h66.2803595c19.88410785 0 33.14017975 13.2560719 33.14017977 33.14017977 0 16.57008987-13.2560719 33.14017975-33.14017977 33.14017974z m-400.996175-251.86536612c-3.31401797-19.88410785 3.31401797-49.71026963 23.19812583-56.33830558l235.29527623-109.36259319c29.82616178-16.57008987 53.02428761-16.57008987 86.16446738 0l235.29527623 109.36259319c16.57008987 9.94205392 23.19812583 36.45419773 19.88410786 59.65232355l3.31401797-3.31401797c29.82616178-13.2560719 29.82616178-79.53643141 0-92.79250331l-255.1793841-122.61866508c-36.45419773-19.88410785-59.65232355-16.57008987-92.7925033 0l-255.1793841 122.61866508c-29.82616178 13.2560719-29.82616178 79.53643141 0 92.79250331z"  horiz-adv-x="1024" />
      
      <glyph glyph-name="icon_querenfenzhen" unicode="&#58991;" d="M512-128C230.4-128 0 102.4 0 384S230.4 896 512 896s512-230.4 512-512-230.4-512-512-512z m0 960C266.24 832 64 629.76 64 384S263.68-64 512-64 960 138.24 960 384 757.76 832 512 832z m286.72-445.44c0-2.56 0-2.56 0 0 0-2.56 0-2.56 0 0 0-15.36-5.12-25.6-15.36-33.28l-227.84-227.84c-15.36-15.36-40.96-15.36-58.88 0-15.36 15.36-15.36 40.96 0 58.88l161.28 161.28H266.24c-23.04 0-40.96 17.92-40.96 40.96s17.92 40.96 40.96 40.96h394.24L496.64 588.8c-15.36 15.36-15.36 40.96 0 58.88 15.36 15.36 40.96 15.36 58.88 0l230.4-230.4c2.56-2.56 2.56-5.12 5.12-5.12 0-2.56 2.56-2.56 2.56-5.12v-2.56c0-2.56 2.56-2.56 2.56-5.12 0-5.12 2.56-10.24 2.56-12.8z"  horiz-adv-x="1024" />
      
      <glyph glyph-name="icon_gouxuan" unicode="&#58992;" d="M833.75923265 605.20947244c-80.43980815-80.43980815-281.53932855-285.56131897-402.1990408-482.63884895-84.46179857 160.87961633-241.31942448 281.53932855-241.3194245 281.53932854l80.43980817 80.43980817s120.65971222-80.43980815 160.87961633-160.87961633c80.43980815 84.46179857 213.16549162 221.20947244 361.9791367 321.75923264 12.06597121-12.06597121 24.13194244-28.15393285 40.2199041-40.21990407z"  horiz-adv-x="1024" />
      
      <glyph glyph-name="icon_yujianfenzhen" unicode="&#58989;" d="M783.36 192c0 15.36 10.24 25.6 25.6 25.6h128c15.36 0 25.6-10.24 25.6-25.6v-128c0-15.36-10.24-25.6-25.6-25.6h-128c-15.36 0-25.6 10.24-25.6 25.6v51.2h-128V373.76c0-2.56-2.56-5.12-5.12-7.68L378.88 94.72c-10.24-10.24-25.6-10.24-35.84 0L69.12 366.08c-10.24 10.24-10.24 25.6 0 35.84L340.48 673.28c10.24 10.24 25.6 10.24 35.84 0l271.36-271.36c2.56-2.56 2.56-5.12 5.12-7.68V652.8h128v51.2c0 15.36 10.24 25.6 25.6 25.6h128c15.36 0 25.6-10.24 25.6-25.6v-128c0-15.36-10.24-25.6-25.6-25.6h-128c-15.36 0-25.6 10.24-25.6 25.6v51.2h-102.4v-230.4h102.4v51.2c0 15.36 10.24 25.6 25.6 25.6h128c15.36 0 25.6-10.24 25.6-25.6v-128c0-15.36-10.24-25.6-25.6-25.6h-128c-15.36 0-25.6 10.24-25.6 25.6v51.2h-102.4v-230.4h102.4l2.56 51.2z m-307.2 230.4h-76.8v76.8h-76.8v-76.8h-76.8v-76.8h76.8v-76.8h76.8v76.8h76.8v76.8z"  horiz-adv-x="1024" />
      
      <glyph glyph-name="icon_fenzhenliebiao" unicode="&#58990;" d="M768 38.4H256c-28.16 0-51.2 23.04-51.2 51.2v588.8c0 28.16 23.04 51.2 51.2 51.2h512c28.16 0 51.2-23.04 51.2-51.2v-588.8c0-28.16-23.04-51.2-51.2-51.2z m-460.8 76.8h51.2v51.2h-51.2v-51.2z m0 102.4h51.2v51.2h-51.2v-51.2z m0 102.4h51.2v51.2h-51.2v-51.2z m230.4 256h-76.8v76.8h-76.8v-76.8h-76.8v-76.8h76.8v-76.8h76.8v76.8h76.8v76.8z m179.2 51.2h-128v-51.2h128v51.2z m0-128h-128v-51.2h128v51.2z m0-128H409.6v-51.2h307.2v51.2z m0-102.4H409.6v-51.2h307.2v51.2z m0-102.4H409.6v-51.2h307.2v51.2z"  horiz-adv-x="1024" />
      
      <glyph glyph-name="logo_docare" unicode="&#58987;" d="M3261.44 174.08c-2.56-12.8-7.68-28.16-12.8-43.52h-317.44c-2.56-10.24-5.12-20.48-5.12-25.6-2.56-20.48-5.12-38.4 0-53.76 2.56-15.36 10.24-30.72 20.48-40.96 10.24-10.24 23.04-20.48 40.96-25.6 15.36-5.12 33.28-7.68 51.2-7.68 20.48 0 40.96 2.56 66.56 7.68 23.04 5.12 53.76 12.8 87.04 23.04-7.68-17.92-17.92-48.64-33.28-92.16-33.28-7.68-58.88-10.24-81.92-12.8-23.04-2.56-43.52-2.56-64-2.56-38.4 0-71.68 2.56-99.84 10.24-28.16 7.68-51.2 20.48-71.68 40.96-17.92 20.48-30.72 46.08-35.84 74.24-5.12 28.16-5.12 61.44 2.56 92.16 7.68 35.84 20.48 71.68 38.4 104.96 17.92 33.28 40.96 61.44 69.12 81.92 25.6 20.48 53.76 35.84 84.48 46.08 30.72 7.68 61.44 12.8 92.16 12.8 23.04 0 43.52-2.56 61.44-7.68-2.56 117.76-99.84 360.96-834.56 401.92-977.92 53.76-1167.36-230.4-1208.32-286.72-40.96-56.32-58.88 302.08 844.8 389.12 862.72 71.68 1274.88-207.36 1297.92-450.56 7.68-46.08 15.36-61.44 20.48-102.4 2.56-43.52-7.68-104.96-12.8-133.12z m-133.12 99.84c-5.12 5.12-12.8 7.68-23.04 10.24-7.68 2.56-17.92 2.56-28.16 2.56-12.8 0-23.04-2.56-35.84-5.12s-23.04-10.24-33.28-15.36c-10.24-7.68-20.48-15.36-28.16-25.6-7.68-10.24-12.8-17.92-17.92-25.6s-10.24-20.48-15.36-33.28h202.24c2.56 12.8 5.12 23.04 5.12 30.72 0 7.68 0 15.36-2.56 23.04l-7.68 23.04-15.36 15.36zM1228.8 345.6c28.16-10.24 51.2-25.6 69.12-43.52 17.92-20.48 28.16-43.52 33.28-71.68 5.12-28.16 5.12-58.88-2.56-89.6-7.68-33.28-17.92-66.56-35.84-97.28S1254.4-15.36 1228.8-35.84c-25.6-23.04-56.32-38.4-89.6-51.2-33.28-10.24-69.12-17.92-104.96-17.92-33.28 0-64 5.12-92.16 15.36-28.16 10.24-51.2 25.6-69.12 46.08S844.8 0 839.68 30.72c-5.12 28.16-5.12 58.88 0 89.6 5.12 33.28 17.92 61.44 33.28 92.16 15.36 28.16 35.84 56.32 61.44 76.8 25.6 23.04 56.32 40.96 92.16 53.76s71.68 17.92 107.52 17.92c35.84 0 66.56-5.12 94.72-15.36z m-181.76-94.72c-23.04-12.8-40.96-30.72-53.76-56.32-15.36-25.6-25.6-51.2-30.72-79.36-5.12-25.6-5.12-48.64 0-66.56 5.12-20.48 12.8-35.84 30.72-48.64 15.36-12.8 35.84-17.92 61.44-17.92s48.64 5.12 69.12 17.92 38.4 30.72 53.76 56.32 25.6 51.2 30.72 81.92c5.12 23.04 5.12 46.08 2.56 66.56s-12.8 35.84-28.16 48.64-35.84 17.92-61.44 17.92c-28.16 0-51.2-7.68-74.24-20.48z m-299.52-163.84c-25.6-46.08-58.88-87.04-97.28-117.76-40.96-30.72-81.92-51.2-122.88-58.88-43.52-7.68-89.6-12.8-143.36-12.8H156.16l40.96 158.72 40.96 197.12 40.96 197.12c2.56 7.68 5.12 30.72 12.8 66.56h89.6c20.48 0 48.64 0 84.48 2.56 35.84 0 64 2.56 89.6 2.56 33.28 0 64-2.56 92.16-5.12 28.16-5.12 51.2-12.8 71.68-23.04 20.48-12.8 35.84-25.6 48.64-43.52s23.04-35.84 28.16-58.88c5.12-20.48 10.24-46.08 10.24-71.68s-2.56-53.76-7.68-79.36c-7.68-58.88-25.6-107.52-51.2-153.6z m-81.92 256c-10.24 28.16-25.6 51.2-46.08 64s-56.32 20.48-107.52 20.48c-33.28 0-69.12 0-112.64-2.56l-97.28-427.52c23.04 0 46.08-2.56 69.12-2.56 25.6 0 51.2 2.56 74.24 5.12 23.04 2.56 43.52 7.68 58.88 12.8 17.92 5.12 35.84 15.36 53.76 30.72 17.92 15.36 35.84 33.28 48.64 51.2 12.8 20.48 25.6 40.96 35.84 64s17.92 48.64 23.04 74.24c10.24 43.52 10.24 79.36 0 110.08z m793.6-17.92c25.6 40.96 56.32 76.8 92.16 104.96 38.4 28.16 79.36 48.64 125.44 64 46.08 12.8 92.16 20.48 140.8 20.48 46.08 0 97.28-5.12 151.04-15.36-5.12-25.6-7.68-43.52-7.68-56.32l-5.12-46.08c-30.72 7.68-56.32 15.36-76.8 17.92s-40.96 5.12-61.44 5.12c-30.72 0-61.44-5.12-92.16-15.36s-58.88-25.6-84.48-46.08-46.08-46.08-64-74.24-28.16-58.88-35.84-92.16c-7.68-38.4-7.68-71.68 2.56-102.4 7.68-30.72 28.16-53.76 56.32-74.24 28.16-17.92 66.56-28.16 112.64-28.16 43.52 0 97.28 7.68 161.28 25.6-12.8-33.28-25.6-69.12-35.84-104.96-33.28-5.12-64-10.24-92.16-12.8h-76.8c-43.52 0-84.48 5.12-120.32 17.92s-69.12 33.28-94.72 58.88-43.52 58.88-51.2 94.72c-7.68 38.4-5.12 79.36 2.56 122.88 10.24 48.64 28.16 94.72 53.76 135.68z m483.84-266.24c7.68 12.8 15.36 23.04 25.6 33.28s23.04 20.48 38.4 30.72c15.36 10.24 35.84 17.92 64 28.16 25.6 7.68 61.44 17.92 104.96 25.6 10.24 2.56 23.04 5.12 35.84 7.68 12.8 2.56 23.04 7.68 30.72 10.24 7.68 2.56 15.36 7.68 20.48 12.8l15.36 15.36c5.12 5.12 5.12 10.24 7.68 17.92 2.56 10.24 0 20.48-5.12 28.16-5.12 7.68-15.36 12.8-25.6 15.36s-23.04 5.12-38.4 5.12c-53.76 0-112.64-12.8-181.76-38.4 7.68 20.48 12.8 35.84 15.36 43.52 2.56 7.68 7.68 20.48 12.8 38.4 40.96 10.24 76.8 15.36 107.52 20.48 30.72 2.56 58.88 5.12 87.04 5.12 30.72 0 58.88-2.56 84.48-10.24s43.52-20.48 56.32-35.84 15.36-40.96 7.68-69.12c-2.56-17.92-12.8-58.88-30.72-128s-33.28-138.24-48.64-209.92h-122.88c10.24 35.84 20.48 76.8 33.28 122.88l25.6 110.08c-12.8-7.68-20.48-12.8-28.16-15.36-5.12-2.56-12.8-5.12-20.48-7.68-7.68-2.56-20.48-5.12-40.96-10.24-17.92-5.12-35.84-10.24-46.08-12.8-12.8-2.56-23.04-7.68-33.28-12.8s-17.92-10.24-25.6-15.36c-7.68-5.12-12.8-12.8-17.92-17.92-5.12-7.68-7.68-12.8-7.68-20.48-2.56-12.8 0-23.04 5.12-30.72s12.8-15.36 23.04-17.92c10.24-2.56 23.04-5.12 35.84-5.12 10.24 0 17.92 0 30.72 2.56 10.24 2.56 25.6 5.12 43.52 10.24-10.24-15.36-20.48-40.96-35.84-74.24-20.48-2.56-38.4-5.12-51.2-7.68-12.8 0-23.04-2.56-33.28-2.56-35.84 0-64 5.12-87.04 15.36-20.48 10.24-35.84 25.6-43.52 46.08-7.68 20.48-7.68 43.52-5.12 64 7.68 10.24 12.8 20.48 17.92 33.28z m570.88 174.08c5.12 25.6 10.24 48.64 15.36 74.24 0 5.12 2.56 17.92 7.68 40.96h117.76l-12.8-61.44c12.8 15.36 25.6 28.16 35.84 35.84s20.48 15.36 30.72 20.48c10.24 5.12 23.04 10.24 35.84 12.8s25.6 5.12 38.4 5.12 23.04-2.56 35.84-5.12c-5.12-28.16-10.24-61.44-15.36-102.4-15.36 5.12-30.72 7.68-46.08 7.68-17.92 0-30.72-2.56-46.08-7.68-12.8-5.12-25.6-12.8-38.4-23.04s-23.04-23.04-33.28-38.4c-7.68-12.8-15.36-28.16-20.48-48.64-5.12-15.36-12.8-40.96-20.48-76.8l-23.04-107.52c-2.56-12.8-5.12-30.72-7.68-51.2h-122.88l53.76 207.36 15.36 117.76z"  horiz-adv-x="3430" />
      
      <glyph glyph-name="logo_mdsd" unicode="&#58988;" d="M547.84 284.16h-192l35.84 204.8h189.44l-5.12-38.4h-138.24l-7.68-46.08h140.8l-7.68-33.28h-140.8l-10.24-46.08h138.24l-2.56-40.96zM199.68 284.16H156.16L102.4 445.44l-25.6-161.28H30.72l30.72 204.8h76.8l43.52-151.04h2.56l89.6 151.04h51.2l-125.44-204.8zM3220.48-74.24v17.92c2.56 2.56 7.68 2.56 12.8 5.12 10.24 2.56 20.48 10.24 30.72 15.36-10.24 17.92-15.36 38.4-17.92 61.44h15.36c2.56-23.04 7.68-40.96 15.36-51.2 5.12 7.68 12.8 15.36 17.92 23.04 5.12 7.68 10.24 17.92 15.36 30.72h-69.12l2.56 15.36h38.4l2.56 33.28h-40.96l2.56 15.36h38.4c0 7.68 2.56 17.92 2.56 30.72h15.36c-2.56-10.24-2.56-20.48-5.12-30.72h48.64l-2.56-15.36h-48.64l-2.56-33.28h38.4c-2.56-10.24-7.68-23.04-15.36-38.4s-15.36-28.16-28.16-40.96c7.68-5.12 15.36-10.24 25.6-12.8 7.68-2.56 17.92-5.12 25.6-5.12-5.12-5.12-7.68-12.8-10.24-17.92-15.36 5.12-25.6 10.24-30.72 12.8-5.12 2.56-12.8 7.68-23.04 15.36-12.8-10.24-28.16-20.48-53.76-30.72z m0 84.48c2.56 0 5.12 2.56 5.12 2.56v15.36c-2.56 0-5.12-2.56-7.68-2.56v-15.36h2.56z m0 46.08h7.68l2.56 15.36h-10.24v-15.36z m0 12.8v-15.36h-10.24l-2.56-33.28c2.56 0 7.68 2.56 15.36 2.56v-15.36c-5.12-2.56-10.24-2.56-15.36-5.12l-5.12-56.32c0-7.68-2.56-12.8-7.68-15.36-5.12-2.56-12.8-5.12-25.6-7.68 0 5.12 0 12.8-2.56 17.92 10.24-2.56 15.36 0 17.92 2.56 2.56 2.56 2.56 5.12 5.12 7.68l5.12 43.52c-10.24-2.56-17.92-5.12-28.16-10.24 0 5.12 0 12.8-2.56 17.92 7.68 0 17.92 2.56 33.28 7.68l2.56 38.4h-28.16l2.56 15.36h28.16c2.56 20.48 2.56 35.84 2.56 43.52h15.36c-2.56-7.68-2.56-23.04-5.12-43.52 0 5.12 2.56 5.12 5.12 5.12z m0-125.44c-5.12-2.56-7.68-2.56-10.24-2.56 5.12-5.12 7.68-12.8 10.24-15.36h2.56v17.92h-2.56z m-176.64 30.72v15.36c7.68 2.56 15.36 2.56 23.04 5.12l10.24 97.28c0 10.24 2.56 20.48 2.56 28.16h17.92c-2.56-5.12-2.56-15.36-2.56-25.6l-7.68-94.72c12.8 2.56 23.04 5.12 30.72 7.68l2.56-15.36c-17.92-2.56-28.16-5.12-33.28-7.68l-2.56-28.16c-2.56-10.24-2.56-23.04-2.56-33.28h-15.36c2.56 10.24 2.56 23.04 2.56 33.28l2.56 25.6c-15.36-5.12-20.48-7.68-28.16-7.68z m0 38.4c2.56 0 5.12 2.56 5.12 2.56-2.56 2.56-5.12 5.12-5.12 10.24v-12.8z m0 48.64c2.56 0 2.56 0 0 0l15.36 7.68c-2.56 5.12-5.12 10.24-10.24 17.92-2.56 5.12-5.12 7.68-5.12 10.24v-35.84z m0 35.84v-35.84l-7.68 15.36c-2.56 5.12-5.12 10.24-7.68 12.8 5.12 5.12 10.24 7.68 15.36 7.68 0 2.56 0 2.56 0 0z m0-71.68v-12.8c-2.56-2.56-5.12-5.12-10.24-5.12l-7.68 15.36c-2.56 5.12-5.12 7.68-7.68 12.8 5.12 2.56 7.68 7.68 12.8 10.24 2.56-2.56 5.12-7.68 10.24-12.8 0-5.12 2.56-7.68 2.56-7.68z m0-35.84v-15.36c-5.12 0-7.68-2.56-12.8-2.56s-10.24-2.56-12.8-2.56v15.36c7.68 2.56 15.36 2.56 20.48 5.12 2.56-2.56 2.56-2.56 5.12 0z m-25.6 110.08z m0 0c-5.12-2.56-10.24-2.56-15.36-2.56v17.92c2.56 0 5.12 2.56 7.68 2.56 2.56-5.12 5.12-12.8 7.68-17.92z m0-66.56z m0-51.2v-15.36c-5.12-2.56-10.24-2.56-15.36-5.12v17.92c5.12 2.56 10.24 2.56 15.36 2.56z m-15.36 5.12v23.04-2.56c2.56-5.12 5.12-12.8 7.68-17.92-2.56 2.56-5.12 0-7.68-2.56z m0 51.2v15.36h12.8l-2.56-15.36h-10.24z m0 76.8v-17.92c-5.12-2.56-10.24-2.56-12.8-2.56l-5.12-38.4h17.92v-15.36h-17.92l-7.68-89.6c0-7.68 0-17.92-2.56-28.16h-17.92c2.56 10.24 2.56 20.48 5.12 28.16l5.12 56.32c-5.12-10.24-10.24-20.48-15.36-28.16-5.12-7.68-10.24-15.36-17.92-23.04-2.56 5.12-7.68 12.8-10.24 15.36 10.24 10.24 17.92 17.92 25.6 30.72 7.68 10.24 12.8 23.04 17.92 38.4h-33.28l2.56 15.36H2972.16l2.56 33.28c-5.12 0-10.24-2.56-12.8-2.56-5.12 0-10.24-2.56-15.36-2.56-2.56 5.12-5.12 10.24-5.12 15.36 5.12 2.56 12.8 2.56 17.92 2.56 5.12 2.56 12.8 2.56 17.92 5.12 5.12 2.56 12.8 5.12 17.92 5.12 0 0 5.12 0 7.68 2.56z m0-102.4c-2.56 5.12-2.56 7.68-5.12 10.24l-15.36-7.68c2.56-2.56 5.12-7.68 7.68-15.36 2.56-5.12 2.56-12.8 5.12-17.92 2.56 2.56 5.12 2.56 7.68 5.12v25.6z m0-33.28c-2.56 0-5.12-2.56-7.68-2.56l5.12-15.36h2.56v17.92z m-176.64-25.6v74.24c7.68 5.12 17.92 10.24 25.6 15.36h-25.6v12.8h53.76v-12.8c-7.68-2.56-15.36-7.68-23.04-12.8l-23.04-15.36-7.68-61.44z m0 128v35.84h2.56c2.56-7.68 2.56-15.36 2.56-23.04h61.44l-2.56-15.36c-10.24 2.56-17.92 2.56-25.6 2.56h-38.4z m0 35.84v-35.84h-64c-2.56-10.24-2.56-20.48-5.12-35.84 0-15.36-2.56-28.16-5.12-43.52-2.56-15.36-5.12-28.16-10.24-43.52-5.12-12.8-10.24-23.04-17.92-30.72v28.16c2.56 5.12 5.12 12.8 7.68 20.48 2.56 10.24 5.12 23.04 7.68 38.4-2.56-2.56-7.68-5.12-15.36-10.24h-2.56v15.36c5.12 2.56 12.8 5.12 17.92 7.68l2.56 33.28c0 12.8 2.56 23.04 2.56 33.28h69.12c-2.56 5.12-2.56 12.8-2.56 20.48 5.12 0 10.24 2.56 15.36 2.56z m0-61.44h-23.04c-10.24 0-20.48 0-28.16 2.56l-2.56-15.36h53.76v12.8z m0-28.16c-2.56-2.56-7.68-5.12-10.24-5.12 2.56-5.12 2.56-10.24 0-20.48l-5.12-40.96c0-5.12-2.56-10.24-5.12-10.24s-10.24-2.56-17.92-2.56c2.56-5.12 5.12-12.8 5.12-20.48 12.8 2.56 20.48 2.56 25.6 7.68 5.12 2.56 7.68 10.24 7.68 17.92v74.24z m-104.96 15.36c2.56 0 5.12 2.56 7.68 2.56 0 12.8-2.56 23.04-2.56 30.72-2.56 0-2.56 0-5.12-2.56v-30.72z m0 33.28v-33.28c-2.56 0-5.12-2.56-7.68-2.56 0 10.24 0 23.04-2.56 33.28 5.12 2.56 7.68 2.56 10.24 2.56z m0-56.32v-15.36c-5.12-2.56-10.24-7.68-15.36-10.24-2.56 5.12-5.12 12.8-7.68 17.92 5.12 2.56 12.8 5.12 17.92 7.68 5.12-2.56 5.12 0 5.12 0z m0-64v-28.16l-2.56-2.56c-2.56 5.12-7.68 7.68-12.8 12.8 5.12 5.12 10.24 10.24 12.8 15.36 2.56 0 2.56 0 2.56 2.56z m-148.48-30.72v12.8h48.64c10.24 0 17.92 0 25.6 2.56l-2.56-15.36h-71.68z m0 61.44v79.36h64l-2.56-15.36c-10.24 0-17.92 2.56-28.16 2.56h-17.92c-2.56-10.24-2.56-23.04-5.12-33.28h28.16c12.8 0 23.04 0 30.72 2.56l-2.56-15.36h-58.88l-2.56-5.12c7.68-5.12 15.36-10.24 25.6-15.36 7.68-5.12 17.92-12.8 28.16-17.92-2.56-2.56-7.68-10.24-15.36-17.92-10.24 7.68-17.92 15.36-25.6 23.04-7.68 5.12-15.36 7.68-17.92 12.8z m0 115.2v12.8h51.2c15.36 0 25.6 0 33.28 2.56l-2.56-15.36h-81.92z m0 12.8v-12.8H2508.8l-15.36-161.28h76.8v-12.8h-97.28c2.56 12.8 2.56 23.04 2.56 28.16l12.8 133.12c0 7.68 2.56 17.92 2.56 25.6h81.92z m0-48.64h-17.92c5.12 5.12 7.68 12.8 12.8 15.36-7.68 2.56-12.8 5.12-17.92 7.68-5.12-10.24-10.24-20.48-15.36-28.16-5.12-7.68-10.24-15.36-17.92-20.48 5.12-2.56 10.24-5.12 12.8-10.24l10.24 10.24c2.56 2.56 5.12 5.12 7.68 10.24h25.6c0-10.24-2.56-23.04-5.12-33.28h-23.04c-10.24 0-20.48 0-28.16 2.56l-2.56-15.36H2562.56c-5.12-10.24-10.24-20.48-20.48-25.6-7.68-5.12-20.48-12.8-38.4-17.92 5.12-5.12 10.24-10.24 12.8-15.36 12.8 7.68 23.04 12.8 30.72 17.92 7.68 5.12 15.36 12.8 23.04 23.04h2.56v79.36zM2378.24-51.2v12.8c2.56 2.56 2.56 5.12 5.12 5.12 10.24-10.24 23.04-17.92 33.28-30.72l-15.36-15.36c-7.68 10.24-15.36 20.48-23.04 28.16z m0 53.76v30.72h5.12c-2.56-10.24-5.12-17.92-5.12-25.6v-5.12z m0 51.2h25.6l-7.68-87.04h15.36c0 12.8 2.56 30.72 5.12 51.2 2.56 23.04 2.56 38.4 5.12 46.08H2380.8v-10.24h-2.56z m0 12.8v38.4H2432l-2.56-12.8h-46.08c-2.56-7.68-2.56-17.92-5.12-25.6z m0 40.96v-51.2h-20.48v12.8h5.12c2.56 10.24 5.12 17.92 5.12 28.16H2355.2v12.8H2378.24v-2.56z m0-74.24v-30.72c-2.56-7.68-2.56-15.36-5.12-25.6s-7.68-17.92-15.36-28.16v30.72c2.56 5.12 5.12 12.8 5.12 20.48 2.56 10.24 2.56 23.04 2.56 33.28 5.12 2.56 7.68 2.56 12.8 0z m0-74.24c-2.56-2.56-2.56-5.12-5.12-5.12 2.56-2.56 5.12-2.56 5.12-5.12v10.24z m-20.48 148.48v-12.8h-23.04l2.56 12.8h20.48z m0-40.96v-12.8H2355.2l-7.68-84.48h-15.36c2.56 10.24 2.56 25.6 5.12 48.64 2.56 23.04 2.56 38.4 2.56 48.64h17.92z m0-84.48c-2.56-5.12-2.56-7.68-2.56-10.24-5.12-10.24-10.24-15.36-17.92-23.04-5.12-5.12-12.8-7.68-17.92-10.24V-81.92c15.36 7.68 28.16 17.92 35.84 28.16 2.56 0 2.56 2.56 2.56 2.56v33.28z m-40.96 0v71.68h7.68c-2.56-5.12-2.56-17.92-5.12-33.28 0-17.92-2.56-30.72-2.56-38.4z m0 94.72v12.8h10.24l-2.56-15.36c0 2.56-2.56 2.56-7.68 2.56z m0 12.8v-12.8h-20.48l-7.68-71.68h15.36l2.56 30.72c0 7.68 2.56 12.8 2.56 17.92h7.68v-71.68H2304v10.24h-15.36l-2.56-38.4 23.04 15.36c0-5.12 0-10.24 2.56-15.36-5.12-2.56-10.24-5.12-17.92-10.24-7.68-5.12-15.36-10.24-20.48-17.92-2.56 5.12-7.68 10.24-10.24 15.36 5.12 5.12 10.24 12.8 12.8 23.04l2.56 30.72-30.72-2.56c0 7.68 2.56 20.48 2.56 33.28 2.56 15.36 2.56 25.6 2.56 33.28h15.36c-2.56-7.68-2.56-15.36-2.56-20.48l-2.56-30.72h15.36l7.68 71.68h-35.84v15.36c7.68 0 17.92-2.56 35.84-2.56 0 10.24 2.56 17.92 2.56 28.16h15.36c-2.56-7.68-2.56-17.92-2.56-25.6 2.56-5.12 10.24-5.12 15.36-5.12z m0-151.04c-2.56-2.56-7.68-2.56-10.24-5.12 5.12-5.12 7.68-7.68 10.24-12.8v17.92z m-235.52-7.68v2.56c7.68 5.12 12.8 15.36 17.92 25.6 5.12 10.24 10.24 25.6 12.8 40.96 2.56 15.36 5.12 33.28 7.68 56.32 2.56 20.48 2.56 38.4 5.12 53.76 5.12 0 15.36 0 33.28 2.56 17.92 2.56 28.16 5.12 35.84 7.68 0-5.12 2.56-10.24 5.12-17.92-7.68 0-15.36 0-23.04-2.56-10.24 0-23.04-2.56-38.4-2.56l-2.56-43.52h64l-2.56-15.36h-23.04l-7.68-81.92c0-10.24-2.56-20.48-2.56-30.72h-15.36c2.56 7.68 2.56 17.92 2.56 30.72l7.68 81.92h-25.6c-2.56-30.72-7.68-53.76-10.24-64-5.12-10.24-7.68-20.48-12.8-28.16l-15.36-23.04c-2.56 2.56-7.68 5.12-12.8 7.68z m0 15.36c2.56 2.56 7.68 5.12 10.24 7.68-2.56 5.12-7.68 10.24-10.24 15.36v-23.04z m0 35.84h23.04l2.56 15.36h-15.36l7.68 81.92h15.36l2.56 15.36h-15.36c2.56 12.8 2.56 20.48 2.56 25.6h-15.36c0-5.12 0-15.36-2.56-25.6h-5.12v-15.36h2.56l-2.56-17.92h-2.56v-79.36z m0 112.64v-15.36h-2.56l2.56 15.36z m0-33.28v-79.36h-2.56v53.76l2.56 10.24h-2.56l2.56 15.36z m0-92.16v-23.04s0-2.56-2.56-2.56l2.56 25.6c0 2.56 0 0 0 0z m0-33.28v-2.56h-2.56l2.56 2.56c0-2.56 0-2.56 0 0z m0 158.72v-15.36h-12.8v15.36h12.8z m0-33.28v-15.36h-12.8v15.36h12.8z m0-25.6v-53.76h-12.8v15.36h7.68l2.56 17.92h-10.24v15.36h10.24l2.56 5.12z m0-64v-25.6s0-2.56-2.56-2.56c-2.56 5.12-5.12 12.8-10.24 20.48V-25.6c2.56 2.56 5.12 2.56 5.12 5.12l7.68-7.68z m0-38.4z m-12.8 161.28v-15.36h-15.36l-2.56-17.92h15.36v-15.36H2048l-2.56-17.92h17.92v-15.36H2048l-2.56-17.92h23.04v-15.36h-58.88l2.56 15.36h20.48l7.68 81.92H2022.4l2.56 15.36h17.92c0 10.24 2.56 17.92 2.56 25.6h17.92c-2.56-2.56-2.56-12.8-5.12-25.6h10.24v2.56z m0-120.32v-10.24c-2.56 2.56-2.56 5.12-5.12 5.12 2.56 0 5.12 2.56 5.12 5.12z m-143.36-46.08v17.92c12.8 0 23.04 2.56 35.84 2.56-5.12-5.12-7.68-12.8-7.68-23.04-10.24 2.56-20.48 2.56-28.16 2.56z m0 38.4v15.36h7.68l5.12 40.96h-12.8v15.36h12.8l5.12 38.4h-17.92v12.8h35.84c-2.56-12.8-2.56-33.28-7.68-64-2.56-30.72-5.12-48.64-5.12-61.44h-23.04v2.56z m115.2 12.8c5.12-5.12 10.24-7.68 12.8-12.8-5.12-2.56-10.24-5.12-15.36-15.36-5.12-7.68-12.8-15.36-17.92-20.48-5.12 5.12-7.68 7.68-12.8 10.24l15.36 15.36c5.12 5.12 10.24 12.8 17.92 23.04z m-115.2 112.64v-15.36h-12.8l-2.56-38.4h17.92v-15.36h-17.92l-5.12-40.96h23.04v-15.36h-46.08v15.36h7.68l2.56 40.96h-12.8v15.36h12.8L1894.4 76.8h-17.92v12.8h17.92c2.56 12.8 2.56 23.04 2.56 30.72h17.92c-2.56-7.68-2.56-17.92-2.56-30.72h12.8v2.56z m0-145.92v-17.92h-28.16c-7.68 0-12.8 0-17.92 2.56V-51.2c15.36-2.56 30.72-2.56 46.08-2.56z m-281.6 17.92c5.12 2.56 10.24 7.68 12.8 10.24 5.12 5.12 7.68 10.24 12.8 17.92h-25.6v12.8h51.2c-5.12-7.68-10.24-15.36-17.92-25.6-5.12-10.24-15.36-17.92-25.6-28.16 10.24-5.12 20.48-7.68 30.72-10.24 10.24-2.56 23.04-2.56 38.4-2.56-5.12-5.12-7.68-12.8-10.24-20.48-20.48 2.56-33.28 5.12-43.52 7.68-7.68 2.56-15.36 5.12-23.04 10.24v28.16z m235.52 128v-15.36h-12.8l-5.12-38.4h17.92v-15.36h-17.92l-5.12-40.96h23.04v-15.36h-40.96c2.56 10.24 5.12 30.72 7.68 61.44 2.56 30.72 5.12 51.2 5.12 64h28.16z m0-145.92h-5.12c-28.16 2.56-46.08 10.24-58.88 23.04l5.12 48.64c2.56 10.24 2.56 20.48 2.56 28.16h-38.4l-2.56-15.36h23.04l-5.12-61.44c-5.12-5.12-15.36-15.36-28.16-25.6 2.56-2.56 7.68-5.12 15.36-12.8 5.12 10.24 10.24 15.36 15.36 20.48 5.12 5.12 10.24 5.12 15.36 0 5.12-5.12 12.8-10.24 20.48-12.8 7.68-2.56 15.36-5.12 25.6-5.12 5.12 0 10.24-2.56 17.92-2.56v15.36h-2.56z m-235.52 76.8v99.84h15.36c-2.56-5.12-2.56-12.8-2.56-23.04h71.68l-2.56-15.36c-10.24 2.56-17.92 2.56-28.16 2.56h-43.52l-2.56-17.92H1715.2v-17.92c-10.24 0-17.92 2.56-28.16 2.56h-35.84l-2.56-17.92H1733.12l-2.56-15.36h-87.04v2.56z m156.16 79.36c5.12 2.56 12.8 5.12 17.92 10.24 5.12-12.8 10.24-23.04 15.36-35.84-5.12-2.56-12.8-5.12-17.92-10.24-5.12 12.8-7.68 25.6-15.36 35.84z m-179.2-107.52c2.56-7.68 7.68-15.36 10.24-17.92 2.56-5.12 7.68-7.68 10.24-12.8 2.56 0 2.56 2.56 2.56 2.56v-23.04c-2.56 2.56-2.56 2.56-5.12 2.56-7.68-2.56-12.8-5.12-17.92-7.68-5.12-2.56-10.24-2.56-15.36-5.12-5.12-2.56-10.24-2.56-17.92-5.12-5.12-2.56-12.8-2.56-23.04-5.12 0 2.56-5.12 10.24-10.24 17.92 5.12 0 10.24 0 17.92 2.56 5.12 0 12.8 2.56 17.92 2.56 5.12 2.56 12.8 2.56 17.92 5.12 5.12 2.56 10.24 5.12 17.92 7.68-2.56 5.12-5.12 7.68-10.24 12.8l-7.68 15.36c-5.12-5.12-10.24-7.68-17.92-12.8-5.12-2.56-10.24-7.68-15.36-10.24-2.56 5.12-7.68 10.24-12.8 15.36 12.8 5.12 25.6 12.8 35.84 20.48 10.24 7.68 17.92 17.92 25.6 28.16h-69.12l2.56 15.36h79.36l2.56 17.92h-30.72c-7.68 0-15.36 0-25.6-2.56l2.56 15.36h56.32l2.56 17.92h-40.96c-7.68 0-17.92 0-28.16-2.56l2.56 15.36h66.56c2.56 7.68 2.56 15.36 2.56 23.04h2.56v-99.84h-2.56c-5.12-5.12-7.68-10.24-12.8-15.36h15.36v-12.8h-28.16zM1794.56 294.4h-197.12l28.16 189.44h46.08l-20.48-151.04h145.92l-2.56-38.4zM1553.92 291.84l-51.2-2.56-17.92 46.08h-58.88v28.16h51.2l-38.4 94.72-12.8-17.92v43.52h51.2l76.8-192z m-128 43.52H1356.8l-20.48-43.52H1280l128 189.44h17.92v-43.52l-51.2-74.24 51.2-2.56v-25.6zM1241.6 291.84c-51.2-2.56-135.68 0-148.48 0-35.84 0-48.64 2.56-61.44 12.8-17.92 10.24-15.36 28.16-15.36 61.44v40.96c0 30.72 17.92 48.64 33.28 61.44 15.36 12.8 30.72 15.36 74.24 17.92l135.68 2.56-5.12-43.52h-130.56c-20.48 0-61.44 0-61.44-30.72l-2.56-48.64c-2.56-20.48 2.56-23.04 5.12-30.72 5.12-7.68 17.92-7.68 43.52-7.68h135.68l-2.56-35.84zM957.44 289.28h-56.32l25.6 192h56.32l-25.6-192zM824.32 386.56c10.24 48.64 0 58.88-69.12 58.88H742.4v43.52h25.6c30.72 0 74.24-7.68 84.48-25.6 17.92-30.72 15.36-53.76 5.12-94.72-5.12-28.16-17.92-48.64-30.72-61.44-15.36-15.36-48.64-20.48-81.92-20.48H742.4v35.84c51.2 0 66.56 12.8 81.92 64zM742.4 445.44h-74.24l-12.8-122.88 81.92-2.56h5.12v-35.84l-135.68 2.56 25.6 199.68H742.4v-40.96zM954.88 248.32l-51.2-322.56c-2.56-15.36-20.48-28.16-38.4-28.16H547.84c-17.92 0-30.72 12.8-28.16 28.16l51.2 322.56h384zM704 870.4h317.44c17.92 0 30.72-12.8 28.16-30.72l-38.4-245.76h-79.36l-12.8-74.24H614.4l51.2 320c2.56 17.92 20.48 30.72 38.4 30.72zM990.72 512h-56.32l10.24 71.68h56.32l-10.24-71.68zM3112.96 455.68h-7.68l-23.04-168.96h-33.28l30.72 194.56h53.76l81.92-153.6 128 156.16h56.32l-25.6-199.68-30.72 2.56 23.04 166.4h-10.24l-133.12-166.4h-23.04zM2828.8 286.72l25.6 194.56h197.12l-2.56-23.04h-168.96l-5.12-56.32h158.72v-25.6h-163.84l-7.68-64h158.72v-25.6zM2726.4 455.68l-20.48-171.52h-33.28l20.48 171.52h-87.04v28.16h215.04v-28.16zM2181.12 284.16l2.56 87.04-92.16 110.08h40.96l74.24-87.04 99.84 87.04h40.96l-130.56-107.52-5.12-89.6zM2060.8 455.68c-56.32 0-112.64 0-168.96-2.56-12.8 0-15.36 2.56-17.92-12.8l-2.56-38.4 133.12-2.56c17.92 0 33.28-5.12 38.4-10.24 5.12-5.12 5.12-17.92 5.12-35.84v-20.48c-2.56-23.04-12.8-33.28-20.48-38.4-7.68-5.12-33.28-5.12-51.2-5.12h-153.6l2.56 25.6 171.52-2.56c7.68 2.56 17.92 2.56 23.04 17.92l2.56 43.52h-135.68c-17.92 0-33.28 2.56-38.4 10.24-5.12 5.12-5.12 17.92-2.56 35.84l2.56 17.92c2.56 17.92 5.12 30.72 12.8 35.84 7.68 7.68 28.16 10.24 46.08 10.24h156.16l-2.56-28.16zM2577.92 453.12c-56.32 0-112.64 0-168.96-2.56-12.8 0-15.36 2.56-17.92-12.8l-2.56-38.4h133.12c17.92 0 33.28-5.12 38.4-10.24 5.12-5.12 5.12-17.92 5.12-35.84l-2.56-20.48c-2.56-23.04-12.8-35.84-20.48-38.4-7.68-5.12-33.28-5.12-51.2-5.12l-151.04 2.56v23.04l171.52-2.56c7.68 2.56 17.92 2.56 23.04 17.92l2.56 43.52h-135.68c-17.92 0-33.28 2.56-38.4 7.68-5.12 5.12-5.12 17.92-2.56 35.84l2.56 17.92c2.56 17.92 5.12 30.72 12.8 35.84 7.68 5.12 28.16 10.24 46.08 10.24h156.16v-28.16z"  horiz-adv-x="3430" />
      
    </font>
</defs>
</svg>
